<svg width="304" height="65" viewBox="0 0 304 65" fill="none" xmlns="http://www.w3.org/2000/svg">
<g clip-path="url(#clip0_534_486)">
<path d="M24.3239 49.1247C19.6908 49.1247 15.8752 45.3091 15.8752 40.676V7.49463L0 23.3699V40.676C0 54.0984 10.9015 64.9999 24.3239 64.9999H41.5618L57.5052 49.1247H24.3239Z" fill="#6366F1"/>
<path d="M57.505 31.8867V49.1247H47.5574C44.2869 49.1247 41.5616 46.3993 41.5616 43.1288V31.8867C41.5616 27.1855 37.8142 23.3699 33.113 23.3699H21.8708C18.5322 23.3699 15.875 20.7127 15.875 17.4423V7.49463H33.113C46.5354 7.49463 57.505 18.3962 57.505 31.8867Z" fill="#4F46E5"/>
<path d="M68.3383 0V15.3302C68.3383 18.8732 65.4767 21.7348 61.9337 21.7348H58.1863C55.9379 16.0797 51.8498 11.4466 46.6035 8.38051V6.40463C46.6035 2.86165 49.4651 0 53.0081 0H68.3383Z" fill="#4F46E5"/>
<path d="M81.15 15H87.75V43.9H105.75V50H81.15V15ZM129.14 28.75L129.34 25.35H135.19V50H129.44L129.14 46.4C127.74 49.3 123.89 50.7 121.14 50.75C113.84 50.8 108.44 46.3 108.44 37.65C108.44 29.15 114.09 24.7 121.29 24.75C124.59 24.75 127.74 26.3 129.14 28.75ZM121.84 30.2C117.79 30.2 114.54 32.95 114.54 37.65C114.54 42.35 117.79 45.15 121.84 45.15C131.44 45.15 131.44 30.2 121.84 30.2ZM166.175 50H160.075V37.1C160.075 33.35 158.025 30.5 154.125 30.5C150.375 30.5 147.825 33.65 147.825 37.4V50H141.775V25.3H147.225L147.625 28.65C150.125 26.2 152.625 24.95 155.725 24.95C161.525 24.95 166.175 29.3 166.175 37.05V50ZM190.839 26.1L193.589 22.7L198.089 26.1L194.989 29.7C197.139 32.25 197.839 34.5 197.839 37.05C197.839 41.45 195.789 44.45 191.739 46.3C196.989 48.2 197.839 51.9 197.839 54.3C197.839 61.3 190.989 64.7 184.389 64.7C175.839 64.7 170.839 60.4 171.089 53.35H177.139C176.939 56.8 180.539 58.75 184.389 58.8C187.789 58.8 191.489 57.35 191.489 54.3C191.489 51.35 189.089 49.45 184.489 49.45C176.339 49.45 170.989 44.75 170.989 37.05C170.989 28.75 177.589 24.55 184.489 24.55C186.439 24.55 189.139 24.95 190.839 26.1ZM184.489 30.2C180.489 30.2 177.089 32.45 177.089 37.05C177.089 41.35 180.489 43.85 184.489 43.85C188.489 43.85 191.739 41.3 191.739 37.05C191.739 32.85 188.489 30.2 184.489 30.2ZM206.048 19.05L212.148 18.4V25.4H218.948V30.65H212.098V41.3C212.098 43.65 213.398 44.8 215.298 44.8C216.248 44.8 217.348 44.5 218.248 44.05L219.948 49.25C218.198 49.95 216.748 50.25 214.898 50.3C209.548 50.5 206.048 47.45 206.048 41.3V30.65H201.448V25.4H206.048V19.05ZM243.3 28.75L243.5 25.35H249.35V50H243.6L243.3 46.4C241.9 49.3 238.05 50.7 235.3 50.75C228 50.8 222.6 46.3 222.6 37.65C222.6 29.15 228.25 24.7 235.45 24.75C238.75 24.75 241.9 26.3 243.3 28.75ZM236 30.2C231.95 30.2 228.7 32.95 228.7 37.65C228.7 42.35 231.95 45.15 236 45.15C245.6 45.15 245.6 30.2 236 30.2ZM262.035 25.25V50H255.935V25.25H262.035ZM255.385 18.4C255.385 23.15 262.585 23.15 262.585 18.4C262.585 13.65 255.385 13.65 255.385 18.4ZM268.78 15.05H274.83V50H268.78V15.05Z" fill="white"/>
</g>
<defs>
<clipPath id="clip0_534_486">
<rect width="304" height="65" fill="white"/>
</clipPath>
</defs>
</svg>
