<svg width="32" height="32" viewBox="0 0 32 32" fill="none" xmlns="http://www.w3.org/2000/svg">
<path d="M12.0002 22.6493C10.147 22.6493 8.62069 21.1231 8.62069 19.2698V5.99707L2.27051 12.3473V19.2698C2.27051 24.6389 6.63118 28.9995 12.0002 28.9995H18.8955L25.273 22.6493H12.0002Z" fill="#6366F1"/>
<path d="M25.2729 15.754V22.6493H21.2938C19.9855 22.6493 18.8954 21.5592 18.8954 20.2509V15.754C18.8954 13.8735 17.3964 12.3473 15.5159 12.3473H11.019C9.6835 12.3473 8.62061 11.2844 8.62061 9.97618V5.99707H15.5159C20.885 5.99707 25.2729 10.3578 25.2729 15.754Z" fill="#4F46E5"/>
<path d="M29.6062 2.99951V9.13169C29.6062 10.5489 28.4615 11.6936 27.0443 11.6936H25.5453C24.6459 9.43149 23.0107 7.57822 20.9121 6.35177V5.5614C20.9121 4.14419 22.0568 2.99951 23.474 2.99951H29.6062Z" fill="#4F46E5"/>
</svg>
